<svg width="24" height="24" viewBox="0 0 24 24" fill="none" xmlns="http://www.w3.org/2000/svg">
<path d="M21 19.9998C21 20.265 20.8946 20.5194 20.7071 20.7069C20.5196 20.8945 20.2652 20.9998 20 20.9998H4C3.73478 20.9998 3.48043 20.8945 3.29289 20.7069C3.10536 20.5194 3 20.265 3 19.9998V9.48981C2.99989 9.33742 3.03462 9.18702 3.10152 9.05011C3.16841 8.91319 3.26572 8.79337 3.386 8.69981L11.386 2.47681C11.5615 2.34025 11.7776 2.26611 12 2.26611C12.2224 2.26611 12.4385 2.34025 12.614 2.47681L20.614 8.69981C20.7343 8.79337 20.8316 8.91319 20.8985 9.05011C20.9654 9.18702 21.0001 9.33742 21 9.48981V19.9998ZM19 18.9998V9.97781L12 4.53381L5 9.97781V18.9998H19ZM7 14.9998H17V16.9998H7V14.9998Z" fill="#828282"/>
</svg>
