<svg width="22" height="20" viewBox="0 0 22 20" fill="none" xmlns="http://www.w3.org/2000/svg">
<path d="M11 14C12.6569 14 14 12.6569 14 11C14 9.34315 12.6569 8 11 8C9.34315 8 8 9.34315 8 11C8 12.6569 9.34315 14 11 14Z" stroke="#EBEBEB" stroke-width="1.5"/>
<path d="M1 11.364C1 8.299 1 6.767 1.749 5.667C2.07457 5.18899 2.49118 4.77986 2.975 4.463C3.695 3.99 4.597 3.821 5.978 3.761C6.637 3.761 7.204 3.271 7.333 2.636C7.43158 2.17087 7.68773 1.75404 8.05815 1.45595C8.42857 1.15787 8.89055 0.996809 9.366 1H12.634C13.622 1 14.473 1.685 14.667 2.636C14.796 3.271 15.363 3.761 16.022 3.761C17.402 3.821 18.304 3.991 19.025 4.463C19.51 4.781 19.927 5.19 20.251 5.667C21 6.767 21 8.299 21 11.364C21 14.429 21 15.96 20.251 17.061C19.9254 17.539 19.5088 17.9481 19.025 18.265C17.904 19 16.343 19 13.222 19H8.778C5.657 19 4.096 19 2.975 18.265C2.49144 17.9477 2.07517 17.5383 1.75 17.06C1.53274 16.7364 1.37274 16.3778 1.277 16M18 8H17" stroke="#EBEBEB" stroke-width="1.5" stroke-linecap="round"/>
</svg>
