<svg width="16" height="16" viewBox="0 0 16 16" fill="none" xmlns="http://www.w3.org/2000/svg">
<g clip-path="url(#clip0_2671_7591)">
<path d="M7.99992 2.34326L2.34326 7.99992L7.99992 13.6566L13.6566 7.99992L7.99992 2.34326ZM8.47126 0.928589L15.0713 7.52859C15.1962 7.65361 15.2664 7.82315 15.2664 7.99992C15.2664 8.1767 15.1962 8.34624 15.0713 8.47126L8.47126 15.0713C8.34624 15.1962 8.1767 15.2664 7.99992 15.2664C7.82315 15.2664 7.65361 15.1962 7.52859 15.0713L0.928589 8.47126C0.803609 8.34624 0.733398 8.1767 0.733398 7.99992C0.733398 7.82315 0.803609 7.65361 0.928589 7.52859L7.52859 0.928589C7.65361 0.803609 7.82315 0.733398 7.99992 0.733398C8.1767 0.733398 8.34624 0.803609 8.47126 0.928589ZM8.66659 6.66659V4.99992L10.9999 7.33326L8.66659 9.66659V7.99992H6.66659V9.99992H5.33326V7.33326C5.33326 7.15645 5.40349 6.98688 5.52852 6.86185C5.65354 6.73683 5.82311 6.66659 5.99992 6.66659H8.66659Z" fill="#0683FF"/>
</g>
<defs>
<clipPath id="clip0_2671_7591">
<rect width="16" height="16" fill="white"/>
</clipPath>
</defs>
</svg>
