<svg width="12" height="12" viewBox="0 0 12 12" fill="none" xmlns="http://www.w3.org/2000/svg">
<path fill-rule="evenodd" clip-rule="evenodd" d="M6 2C4.6065 2 3.3685 2.6285 2.487 3.4065C2.045 3.797 1.68 4.235 1.423 4.672C1.17 5.1005 1 5.565 1 6C1 6.435 1.17 6.8995 1.423 7.328C1.68 7.7645 2.0445 8.203 2.487 8.5935C3.3685 9.3715 4.607 10 6 10C7.3935 10 8.6315 9.3715 9.513 8.5935C9.9555 8.203 10.32 7.7645 10.577 7.328C10.83 6.8995 11 6.435 11 6C11 5.565 10.83 5.1005 10.577 4.672C10.32 4.2355 9.9555 3.797 9.513 3.4065C8.6315 2.6285 7.393 2 6 2ZM7 6C7.18 6 7.3485 5.9525 7.4945 5.8695C7.52115 6.1761 7.45284 6.48348 7.29884 6.74993C7.14485 7.01639 6.91262 7.22903 6.63367 7.35901C6.35471 7.489 6.04252 7.53003 5.73945 7.47654C5.43637 7.42306 5.15709 7.27764 4.93947 7.06003C4.72186 6.84241 4.57644 6.56313 4.52296 6.26005C4.46947 5.95698 4.5105 5.64479 4.64049 5.36583C4.77047 5.08688 4.98311 4.85465 5.24957 4.70066C5.51603 4.54666 5.8234 4.47836 6.13 4.505C6.0433 4.65718 5.9981 4.82946 5.9989 5.0046C5.99971 5.17974 6.0465 5.3516 6.13459 5.50297C6.22268 5.65435 6.34899 5.77993 6.50086 5.86716C6.65274 5.95439 6.82486 6.00019 7 6Z" fill="white"/>
</svg>
