<svg width="44" height="44" viewBox="0 0 44 44" fill="none" xmlns="http://www.w3.org/2000/svg">
<path fill-rule="evenodd" clip-rule="evenodd" d="M0 6.5C0 4.77609 0.68482 3.12279 1.90381 1.90381C3.12279 0.68482 4.77609 0 6.5 0H36.8333C38.5572 0 40.2105 0.68482 41.4295 1.90381C42.6485 3.12279 43.3333 4.77609 43.3333 6.5V20.5833C43.3332 20.7661 43.3099 20.9481 43.264 21.125C43.3099 21.3019 43.3332 21.4839 43.3333 21.6667V36.8333C43.3333 38.5572 42.6485 40.2105 41.4295 41.4295C40.2105 42.6485 38.5572 43.3333 36.8333 43.3333H6.5C4.77609 43.3333 3.12279 42.6485 1.90381 41.4295C0.68482 40.2105 0 38.5572 0 36.8333V30.3333C0.000173974 30.1506 0.0234702 29.9686 0.0693335 29.7917C0.0234702 29.6148 0.000173974 29.4328 0 29.25V6.5ZM6.487 27.7983C5.733 27.8128 5.01511 27.846 4.33333 27.898V6.5C4.33333 5.92536 4.56161 5.37426 4.96794 4.96794C5.37426 4.56161 5.92536 4.33333 6.5 4.33333H36.8333C37.408 4.33333 37.9591 4.56161 38.3654 4.96794C38.7717 5.37426 39 5.92536 39 6.5V19.5347C29.6898 19.8358 22.9667 22.0783 18.2433 25.2178C20.033 25.8527 22.035 26.7562 23.998 27.9392C27.0292 29.7592 30.1102 32.3158 32.1837 35.7023C32.3322 35.945 32.4315 36.2146 32.4758 36.4957C32.5201 36.7768 32.5087 37.0638 32.4421 37.3404C32.3755 37.6171 32.2551 37.8779 32.0877 38.108C31.9203 38.3381 31.7092 38.533 31.4665 38.6815C31.2238 38.83 30.9542 38.9293 30.6731 38.9736C30.3921 39.018 30.105 39.0065 29.8284 38.9399C29.5517 38.8733 29.2909 38.7529 29.0608 38.5855C28.8307 38.4181 28.6359 38.207 28.4873 37.9643C26.8927 35.3578 24.4183 33.2453 21.7663 31.6528C19.1187 30.0625 16.4255 29.0702 14.5578 28.6368C11.9268 28.0367 9.23294 27.7559 6.53467 27.8005H6.487V27.7983ZM10.7857 9.724C11.7511 9.0431 12.9019 8.67411 14.0833 8.66667C14.9717 8.66667 16.2565 8.91583 17.381 9.724C18.616 10.6123 19.5 12.077 19.5 14.0833C19.5 16.0897 18.616 17.5522 17.381 18.4405C16.4158 19.1222 15.265 19.4919 14.0833 19.5C13.195 19.5 11.9102 19.2508 10.7857 18.4405C9.55067 17.5522 8.66667 16.0918 8.66667 14.0833C8.66667 12.077 9.55067 10.6145 10.7857 9.724Z" fill="black" fill-opacity="0.14"/>
</svg>
