<svg width="20" height="20" viewBox="0 0 20 20" fill="none" xmlns="http://www.w3.org/2000/svg">
<path d="M1.83447 10.0795C2.12733 10.3723 2.42019 10.4645 2.99804 10.4645L9.33447 10.498C9.39304 10.498 9.44304 10.498 9.4684 10.5313C9.4934 10.5563 9.50161 10.6066 9.50161 10.657L9.52661 17.002C9.53518 17.5795 9.62733 17.8723 9.92019 18.1652C10.3138 18.567 10.8663 18.5002 11.2763 18.0984C11.4941 17.8805 11.6698 17.5209 11.8288 17.1859L18.2323 3.37483C18.567 2.67197 18.5252 2.15269 18.1823 1.80947C17.847 1.47483 17.328 1.43304 16.6252 1.76769L2.81376 8.17126C2.47876 8.33019 2.11911 8.5059 1.90126 8.72376C1.49947 9.13376 1.43269 9.67804 1.83447 10.0798" fill="#1F1F1F" fill-opacity="0.8"/>
</svg>
