<svg width="20" height="20" viewBox="0 0 20 20" fill="none" xmlns="http://www.w3.org/2000/svg">
<path d="M9.38672 15.5C9.51562 15.6992 9.74219 15.832 10 15.832C10.2578 15.832 10.4844 15.6992 10.6172 15.5L14.9219 8.85156C15.5 7.95703 15.8359 6.97266 15.8359 5.83203C15.832 2.53516 13.2422 0 10 0C6.75781 0 4.16797 2.53516 4.16797 5.83203C4.16797 6.97266 4.50391 7.95703 5.08203 8.85156L9.38672 15.5ZM10 2.5C11.8398 2.5 13.332 3.99219 13.332 5.83203C13.332 7.67188 11.8398 9.16406 10 9.16406C8.16016 9.16406 6.66797 7.67188 6.66797 5.83203C6.66797 3.99219 8.16016 2.5 10 2.5ZM14.2734 12.6367L10 18.332L5.72656 12.6367C4.26563 13.4023 3.33203 14.5469 3.33203 15.832C3.33203 18.1328 6.31641 20 10 20C13.6836 20 16.668 18.1328 16.668 15.832C16.668 14.5469 15.7344 13.4023 14.2734 12.6367Z" fill="#1F1F1F"/>
</svg>
