<svg width="16" height="16" viewBox="0 0 16 16" fill="none" xmlns="http://www.w3.org/2000/svg">
<path d="M10.5 1.3335C10.8978 1.3335 11.2794 1.49153 11.5607 1.77284C11.842 2.05414 12 2.43567 12 2.8335V13.1668C12 13.5647 11.842 13.9462 11.5607 14.2275C11.2794 14.5088 10.8978 14.6668 10.5 14.6668H5.5C5.10218 14.6668 4.72064 14.5088 4.43934 14.2275C4.15804 13.9462 4 13.5647 4 13.1668V2.8335C4 2.43567 4.15804 2.05414 4.43934 1.77284C4.72064 1.49153 5.10218 1.3335 5.5 1.3335H10.5ZM8.83333 12.0002H7.16667C7.03406 12.0002 6.90688 12.0528 6.81311 12.1466C6.71935 12.2404 6.66667 12.3676 6.66667 12.5002C6.66667 12.6328 6.71935 12.7599 6.81311 12.8537C6.90688 12.9475 7.03406 13.0002 7.16667 13.0002H8.83333C8.96594 13.0002 9.09312 12.9475 9.18689 12.8537C9.28065 12.7599 9.33333 12.6328 9.33333 12.5002C9.33333 12.3676 9.28065 12.2404 9.18689 12.1466C9.09312 12.0528 8.96594 12.0002 8.83333 12.0002Z" fill="#1F1F1F" fill-opacity="0.4"/>
</svg>
