<svg width="24" height="24" viewBox="0 0 24 24" fill="none" xmlns="http://www.w3.org/2000/svg">
<g clip-path="url(#clip0_906_5841)">
<path d="M21.8999 18.7531L21.6732 18.5531C21.0302 17.9802 20.4673 17.3231 19.9999 16.5998C19.4894 15.6015 19.1834 14.5113 19.0999 13.3931V10.0998C19.1043 8.34351 18.4672 6.64609 17.3084 5.32642C16.1495 4.00675 14.5486 3.15568 12.8065 2.93311V2.07311C12.8065 1.83706 12.7128 1.61069 12.5459 1.44378C12.379 1.27687 12.1526 1.18311 11.9165 1.18311C11.6805 1.18311 11.4541 1.27687 11.2872 1.44378C11.1203 1.61069 11.0265 1.83706 11.0265 2.07311V2.94644C9.30004 3.18506 7.71852 4.04128 6.57489 5.35651C5.43126 6.67174 4.80302 8.35687 4.80654 10.0998V13.3931C4.72304 14.5113 4.41705 15.6015 3.90654 16.5998C3.44712 17.3213 2.89333 17.9783 2.25987 18.5531L2.0332 18.7531V20.6331H21.8999V18.7531Z" fill="#F8BD00"/>
<path d="M10.2134 21.3335C10.2718 21.7561 10.4812 22.1432 10.8029 22.4235C11.1246 22.7037 11.5368 22.8581 11.9634 22.8581C12.39 22.8581 12.8022 22.7037 13.1239 22.4235C13.4455 22.1432 13.6549 21.7561 13.7134 21.3335H10.2134Z" fill="#F8BD00"/>
<circle cx="18.5" cy="6.5" r="3.5" fill="#FF1F1F"/>
</g>
<defs>
<clipPath id="clip0_906_5841">
<rect width="24" height="24" fill="white"/>
</clipPath>
</defs>
</svg>
