<svg width="20" height="20" viewBox="0 0 20 20" fill="none" xmlns="http://www.w3.org/2000/svg">
<path d="M5.00016 16.6667C4.54183 16.6667 4.14961 16.5036 3.8235 16.1775C3.49738 15.8514 3.33405 15.4589 3.3335 15V13.3333C3.3335 13.0972 3.4135 12.8995 3.5735 12.74C3.7335 12.5806 3.93127 12.5006 4.16683 12.5C4.40238 12.4995 4.60044 12.5795 4.761 12.74C4.92155 12.9006 5.00127 13.0983 5.00016 13.3333V15H15.0002V13.3333C15.0002 13.0972 15.0802 12.8995 15.2402 12.74C15.4002 12.5806 15.5979 12.5006 15.8335 12.5C16.0691 12.4995 16.2671 12.5795 16.4277 12.74C16.5882 12.9006 16.6679 13.0983 16.6668 13.3333V15C16.6668 15.4583 16.5038 15.8508 16.1777 16.1775C15.8516 16.5042 15.4591 16.6672 15.0002 16.6667H5.00016ZM9.16683 6.54168L7.60433 8.10418C7.43766 8.27085 7.23989 8.35085 7.011 8.34418C6.78211 8.33751 6.58405 8.25057 6.41683 8.08335C6.26405 7.91668 6.18405 7.72224 6.17683 7.50001C6.16961 7.27779 6.24961 7.08335 6.41683 6.91668L9.41683 3.91668C9.50016 3.83335 9.59044 3.77446 9.68766 3.74001C9.78488 3.70557 9.88905 3.68807 10.0002 3.68751C10.1113 3.68696 10.2154 3.70446 10.3127 3.74001C10.4099 3.77557 10.5002 3.83446 10.5835 3.91668L13.5835 6.91668C13.7502 7.08335 13.8302 7.27779 13.8235 7.50001C13.8168 7.72224 13.7368 7.91668 13.5835 8.08335C13.4168 8.25001 13.2191 8.33696 12.9902 8.34418C12.7613 8.3514 12.5632 8.2714 12.396 8.10418L10.8335 6.54168V12.5C10.8335 12.7361 10.7535 12.9342 10.5935 13.0942C10.4335 13.2542 10.2357 13.3339 10.0002 13.3333C9.76461 13.3328 9.56683 13.2528 9.40683 13.0933C9.24683 12.9339 9.16683 12.7361 9.16683 12.5V6.54168Z" fill="#00930F"/>
</svg>
