<svg width="16" height="16" viewBox="0 0 16 16" fill="none" xmlns="http://www.w3.org/2000/svg">
<path d="M2.51884 2.43671C2.39818 2.67671 2.33884 2.97404 2.22018 3.56737L1.82151 5.56071C1.76501 5.83249 1.76457 6.11295 1.82023 6.3849C1.87588 6.65686 1.98645 6.9146 2.14517 7.14234C2.30389 7.37008 2.50742 7.56303 2.7433 7.70938C2.97919 7.85573 3.24245 7.9524 3.51699 7.99347C3.79153 8.03454 4.07157 8.01915 4.33995 7.94823C4.60833 7.87732 4.85942 7.75238 5.07784 7.58105C5.29626 7.40973 5.47741 7.19563 5.61021 6.95187C5.74302 6.7081 5.82467 6.43979 5.85018 6.16337L5.89684 5.70337C5.87158 5.99593 5.90762 6.29054 6.00266 6.56839C6.0977 6.84623 6.24966 7.10119 6.44882 7.31698C6.64798 7.53277 6.88996 7.70464 7.1593 7.82162C7.42864 7.93859 7.71943 7.99809 8.01307 7.99632C8.30671 7.99455 8.59676 7.93155 8.86467 7.81134C9.13259 7.69113 9.37248 7.51635 9.56902 7.29818C9.76556 7.08001 9.91444 6.82323 10.0061 6.54427C10.0978 6.2653 10.1303 5.97027 10.1015 5.67804L10.1502 6.16337C10.1757 6.43979 10.2573 6.7081 10.3901 6.95187C10.5229 7.19563 10.7041 7.40973 10.9225 7.58105C11.1409 7.75238 11.392 7.87732 11.6604 7.94823C11.9288 8.01915 12.2088 8.03454 12.4834 7.99347C12.7579 7.9524 13.0212 7.85573 13.2571 7.70938C13.4929 7.56303 13.6965 7.37008 13.8552 7.14234C14.0139 6.9146 14.1245 6.65686 14.1801 6.3849C14.2358 6.11295 14.2353 5.83249 14.1788 5.56071L13.7802 3.56737C13.6615 2.97404 13.6022 2.67737 13.4815 2.43671C13.3558 2.18607 13.1787 1.96466 12.9619 1.78687C12.7451 1.60908 12.4933 1.47888 12.2228 1.40471C11.9628 1.33337 11.6602 1.33337 11.0548 1.33337H4.94551C4.34018 1.33337 4.03751 1.33337 3.77751 1.40471C3.50709 1.47888 3.25529 1.60908 3.03845 1.78687C2.82161 1.96466 2.64458 2.18607 2.51884 2.43671ZM12.1795 9.00004C12.7004 9.00136 13.2128 8.86792 13.6668 8.61271V9.33337C13.6668 11.8474 13.6668 13.1047 12.8855 13.8854C12.2568 14.5147 11.3202 14.6367 9.66684 14.6607V12.3334C9.66684 11.71 9.66684 11.3987 9.53284 11.1667C9.44508 11.0147 9.31885 10.8885 9.16684 10.8007C8.93484 10.6667 8.62351 10.6667 8.00018 10.6667C7.37684 10.6667 7.06551 10.6667 6.83351 10.8007C6.6815 10.8885 6.55528 11.0147 6.46751 11.1667C6.33351 11.3987 6.33351 11.71 6.33351 12.3334V14.6607C4.68018 14.6367 3.74351 14.514 3.11484 13.8854C2.33351 13.1047 2.33351 11.8474 2.33351 9.33337V8.61271C2.78779 8.86804 3.3004 9.00147 3.82151 9.00004C4.59194 9.00052 5.33368 8.70783 5.89618 8.18137C6.46932 8.70959 7.22075 9.00197 8.00018 9.00004C8.7796 9.00197 9.53103 8.70959 10.1042 8.18137C10.6667 8.70783 11.4091 9.00052 12.1795 9.00004Z" fill="white"/>
</svg>
